<svg width="1792.0000000000002" height="1792.0000000000002" xmlns="http://www.w3.org/2000/svg">

 <g>
  <title>background</title>
  <rect fill="#adb5bd" id="canvas_background" height="1794" width="1794" y="-1" x="-1"/>
 </g>
 <g>
  <title>Layer 1</title>
  <path stroke="null" id="svg_1" fill="#fff" d="m1389.999238,1253.167091q0,84.204413 -51.224351,132.972802t-136.130468,48.768389l-613.288807,0q-84.906116,0 -136.130468,-48.768389t-51.224351,-132.972802q0,-37.190282 2.455962,-72.626306t9.823848,-76.485675t18.595141,-76.134823t30.173248,-68.416085t43.505613,-56.837979t59.995644,-37.541134t78.239934,-14.034069q6.315331,0 29.471545,15.086624t52.276906,33.681765t75.783972,33.681765t93.677409,15.086624t93.677409,-15.086624t75.783972,-33.681765t52.276906,-33.681765t29.471545,-15.086624q42.80391,0 78.239934,14.034069t59.995644,37.541134t43.505613,56.837979t30.173248,68.416085t18.595141,76.134823t9.823848,76.485675t2.455962,72.626306zm-224.545101,-626.621173q0,111.570847 -78.941637,190.512484t-190.512484,78.941637t-190.512484,-78.941637t-78.941637,-190.512484t78.941637,-190.512484t190.512484,-78.941637t190.512484,78.941637t78.941637,190.512484z"/>
 </g>
</svg>